<?xml version="1.0" encoding="UTF-8" standalone="no"?>
<!-- Created with Inkscape (http://www.inkscape.org/) -->

<svg
   width="210mm"
   height="297mm"
   viewBox="0 0 210 297"
   version="1.1"
   id="svg8"
   sodipodi:docname="dsc.svg"
   inkscape:version="1.3.2 (091e20e, 2023-11-25, custom)"
   inkscape:export-filename="/home/daniel/Insync/sites/danielfloripa.github.io/assets/images/svg/dsc2.png"
   inkscape:export-xdpi="90"
   inkscape:export-ydpi="90"
   xmlns:inkscape="http://www.inkscape.org/namespaces/inkscape"
   xmlns:sodipodi="http://sodipodi.sourceforge.net/DTD/sodipodi-0.dtd"
   xmlns="http://www.w3.org/2000/svg"
   xmlns:svg="http://www.w3.org/2000/svg"
   xmlns:rdf="http://www.w3.org/1999/02/22-rdf-syntax-ns#"
   xmlns:cc="http://creativecommons.org/ns#"
   xmlns:dc="http://purl.org/dc/elements/1.1/">
  <defs
     id="defs2">
    <inkscape:path-effect
       effect="bspline"
       id="path-effect2"
       is_visible="true"
       lpeversion="1.3"
       weight="33.333333"
       steps="2"
       helper_size="0"
       apply_no_weight="true"
       apply_with_weight="true"
       only_selected="false"
       uniform="false" />
    <inkscape:path-effect
       effect="bspline"
       id="path-effect1"
       is_visible="true"
       lpeversion="1.3"
       weight="33.333333"
       steps="2"
       helper_size="0"
       apply_no_weight="true"
       apply_with_weight="true"
       only_selected="false"
       uniform="false" />
    <inkscape:perspective
       sodipodi:type="inkscape:persp3d"
       inkscape:vp_x="0 : 148.5 : 1"
       inkscape:vp_y="0 : 1000 : 0"
       inkscape:vp_z="210 : 148.5 : 1"
       inkscape:persp3d-origin="105 : 99 : 1"
       id="perspective1228" />
    <inkscape:path-effect
       effect="simplify"
       id="path-effect46"
       is_visible="true"
       steps="1"
       threshold="0.00147011"
       smooth_angles="360"
       helper_size="0"
       simplify_individual_paths="false"
       simplify_just_coalesce="false"
       simplifyindividualpaths="false"
       simplifyJustCoalesce="false" />
    <inkscape:path-effect
       effect="simplify"
       id="path-effect42"
       is_visible="true"
       steps="1"
       threshold="0.000851064"
       smooth_angles="360"
       helper_size="0"
       simplify_individual_paths="false"
       simplify_just_coalesce="false"
       simplifyindividualpaths="false"
       simplifyJustCoalesce="false" />
    <filter
       inkscape:label="Flex Metal"
       inkscape:menu="Materials"
       inkscape:menu-tooltip="Bright, polished uneven metal casting, colorizable"
       height="1.5"
       y="-0.25"
       width="1.5"
       x="-0.25"
       style="color-interpolation-filters:sRGB;"
       id="filter1226">
      <feGaussianBlur
         stdDeviation="5"
         result="result8"
         id="feGaussianBlur1210" />
      <feTurbulence
         seed="25"
         result="result7"
         type="turbulence"
         numOctaves="2"
         baseFrequency="0.03"
         id="feTurbulence1212" />
      <feComposite
         in2="result8"
         result="result6"
         operator="in"
         in="result8"
         id="feComposite1214" />
      <feDisplacementMap
         in="result7"
         in2="result6"
         xChannelSelector="A"
         yChannelSelector="A"
         scale="120"
         result="result4"
         id="feDisplacementMap1216" />
      <feComposite
         in2="result4"
         result="result2"
         operator="arithmetic"
         in="SourceGraphic"
         k1="2"
         k3="2.5"
         k2="0.25"
         id="feComposite1218"
         k4="0" />
      <feComposite
         result="fbSourceGraphic"
         in="result2"
         operator="in"
         in2="SourceGraphic"
         id="feComposite1220" />
      <feBlend
         mode="screen"
         in2="fbSourceGraphic"
         result="result91"
         id="feBlend1222" />
      <feBlend
         mode="multiply"
         in2="result91"
         id="feBlend1224" />
    </filter>
    <filter
       style="color-interpolation-filters:sRGB"
       id="filter1609"
       inkscape:label="filtro1">
      <feBlend
         mode="normal"
         in2="SourceGraphic"
         id="feBlend1611" />
      <feOffset
         dx="0"
         dy="0"
         id="feOffset1613" />
      <feOffset
         dx="0"
         dy="0"
         id="feOffset1615" />
    </filter>
    <filter
       inkscape:label="Metallized Ridge"
       inkscape:menu="Ridges"
       inkscape:menu-tooltip="Gel Ridge metallized at its top"
       height="4.8250848"
       y="-1.9125424"
       width="4.2347351"
       x="-1.6173676"
       style="color-interpolation-filters:sRGB;"
       id="filter2051">
      <feGaussianBlur
         stdDeviation="0.01"
         result="result1"
         id="feGaussianBlur2027" />
      <feGaussianBlur
         stdDeviation="2.52"
         result="result6"
         in="result1"
         id="feGaussianBlur2029" />
      <feComposite
         operator="atop"
         in="result6"
         in2="result1"
         result="result8"
         id="feComposite2031" />
      <feComposite
         operator="xor"
         result="fbSourceGraphic"
         in="result6"
         in2="result8"
         id="feComposite2033" />
      <feColorMatrix
         result="fbSourceGraphicAlpha"
         in="fbSourceGraphic"
         values="0 0 0 -1 0 0 0 0 -1 0 0 0 0 -1 0 0 0 0 2 0 "
         id="feColorMatrix2035" />
      <feGaussianBlur
         result="result0"
         in="fbSourceGraphicAlpha"
         stdDeviation="2.5"
         id="feGaussianBlur2037" />
      <feSpecularLighting
         specularExponent="35"
         specularConstant="1"
         surfaceScale="4"
         lighting-color="rgb(255,255,255)"
         result="result1"
         in="result0"
         id="feSpecularLighting2041">
        <fePointLight
           z="20000"
           y="-10000"
           x="-5000"
           id="fePointLight2039" />
      </feSpecularLighting>
      <feComposite
         operator="in"
         result="result2"
         in="result1"
         in2="fbSourceGraphicAlpha"
         id="feComposite2043" />
      <feComposite
         k3="1"
         k2="1"
         operator="arithmetic"
         result="result4"
         in="fbSourceGraphic"
         in2="result2"
         id="feComposite2045"
         k1="0"
         k4="0" />
      <feComposite
         operator="atop"
         in="result9"
         in2="result4"
         result="result91"
         id="feComposite2047" />
      <feBlend
         mode="multiply"
         in2="result91"
         id="feBlend2049" />
    </filter>
  </defs>
  <sodipodi:namedview
     id="base"
     pagecolor="#ffffff"
     bordercolor="#666666"
     borderopacity="1.0"
     inkscape:pageopacity="0.0"
     inkscape:pageshadow="2"
     inkscape:zoom="0.9899495"
     inkscape:cx="110.10663"
     inkscape:cy="483.35799"
     inkscape:document-units="mm"
     inkscape:current-layer="layer1"
     showgrid="false"
     inkscape:window-width="1920"
     inkscape:window-height="1017"
     inkscape:window-x="-8"
     inkscape:window-y="-8"
     inkscape:window-maximized="1"
     inkscape:showpageshadow="2"
     inkscape:pagecheckerboard="0"
     inkscape:deskcolor="#d1d1d1" />
  <metadata
     id="metadata5">
    <rdf:RDF>
      <cc:Work
         rdf:about="">
        <dc:format>image/svg+xml</dc:format>
        <dc:type
           rdf:resource="http://purl.org/dc/dcmitype/StillImage" />
      </cc:Work>
    </rdf:RDF>
  </metadata>
  <g
     inkscape:label="Camada 1"
     inkscape:groupmode="layer"
     id="layer1">
    <g
       id="g1460">
      <path
         style="font-style:normal;font-variant:normal;font-weight:normal;font-stretch:normal;font-size:121.815px;line-height:1.25;font-family:'GFS Theokritos';-inkscape-font-specification:'GFS Theokritos';letter-spacing:0px;word-spacing:0px;fill:#000000;fill-opacity:1;stroke:none;stroke-width:2.53334"
         d="m 127.93024,70.449404 c -0.1191,0.0252 -0.30363,0.39576 -0.53713,1.10779 -0.8944,2.72726 -1.05864,5.27227 -0.53993,8.37146 0.14831,0.88607 0.23624,1.68482 0.19545,1.77531 -0.1532,0.34028 -0.69892,-0.0744 -2.11697,-1.60893 -1.85225,-2.00433 -3.43156,-4.49798 -4.2864,-6.7681 -0.98586,-2.61775 -1.30509,-1.81503 -0.72284,1.81751 0.34435,2.14851 0.66981,3.22811 1.6063,5.33113 0.35656,0.80082 0.5539,1.51123 0.43871,1.57868 -0.41862,0.2451 -3.147,-0.82958 -4.28315,-1.68695 -0.58716,-0.44306 -1.1377,-0.78176 -1.22376,-0.75272 -0.24162,0.0814 0.47545,1.09957 1.43824,2.17576 -0.42003,0.13831 -0.91528,0.21735 -1.49117,0.23326 l -2.52551,-0.93542 c -3.10984,-1.08777 -6.22008,-1.63162 -9.50269,-1.63162 -1.55493,0 -3.28248,0.18133 -5.010176,0.36262 -0.258101,0.0435 -0.515171,0.0903 -0.772044,0.13852 -7.501074,0.76181 -14.1889,3.5403 -20.155806,8.33763 -2.614478,2.13243 -4.988625,4.42731 -7.093251,6.88433 -0.308184,0.0692 -0.608997,0.14109 -0.878821,0.21734 -1.797422,0.50795 -6.496774,2.81918 -7.84069,3.85594 -1.097798,0.846886 -1.05206,0.841116 1.973055,-0.23963 1.597591,-0.57074 3.490636,-1.05944 4.682872,-1.25227 -0.498306,0.66779 -0.979739,1.3455 -1.439634,2.03524 -0.05308,0.0752 -0.102195,0.14701 -0.154131,0.221316 -0.349197,0.0619 -0.924104,0.31647 -1.898775,0.76307 -2.692376,1.23365 -4.37941,2.65814 -6.125756,5.1727 h 4.64e-4 c -0.407963,0.58741 -0.688332,1.08168 -0.623021,1.09863 0.0653,0.017 0.779298,-0.53424 1.586801,-1.22521 1.73077,-1.48102 3.909151,-2.92797 4.565418,-3.03237 0.225341,-0.0359 0.39069,0.0106 0.576133,0.19823 -0.390232,0.67351 -0.710022,1.28887 -0.960065,1.84657 -0.634447,0.1823 -2.952913,1.87886 -4.006001,2.9639 -1.179334,1.21513 -2.258797,2.88269 -2.981403,4.60628 -0.315269,0.75204 -0.500795,1.38607 -0.412251,1.4091 0.08854,0.023 0.464532,-0.306 0.835182,-0.73122 1.556364,-1.78557 3.676983,-3.40215 5.052879,-3.87226 -0.225404,0.81746 -0.354817,1.59428 -0.385326,2.3306 -0.0014,0.0292 -6.41e-4,0.0602 -0.0019,0.0896 -0.151904,0.36231 -0.326581,0.83408 -0.49164,1.34383 -0.693102,2.14011 -0.867193,4.65499 -0.472604,6.82542 0.144892,0.79711 0.33476,1.46799 0.422001,1.49071 0.08724,0.0227 0.305312,-0.54156 0.484211,-1.25387 0.283885,-1.13047 0.628483,-2.05384 0.993026,-2.70835 0.771386,2.43742 2.012128,5.21969 3.731629,8.35354 2.938682,5.43314 6.444372,10.03328 10.424696,13.80131 -0.02291,0.001 -0.04528,0.001 -0.06824,0.002 -2.439016,0.17406 -4.065229,1.13145 -4.994384,2.87196 -0.348435,0.60917 -0.464328,1.21858 -0.348185,2.00181 0.116149,0.78322 0.34824,1.21819 0.928959,1.30522 0.69687,0.087 1.161382,-0.1742 1.393674,-0.78337 0.58072,-1.82754 1.509761,-2.78478 2.787347,-2.78478 1.742158,0 2.787564,1.13139 3.135997,3.30702 0.813003,5.30854 1.16155,12.7927 1.16155,22.62655 0,9.82905 -0.347834,17.31035 -0.928032,22.44463 -3.540637,-2.12369 -6.589006,-5.07417 -9.174012,-8.77309 -2.937076,-4.53234 -3.953802,-7.61427 -4.900044,-12.78071 -0.338893,-3.87897 -0.337444,-3.82502 -1.213076,-9.33713 -0.200452,-4.37019 -0.04491,-4.27384 0.06582,-6.52648 1.469035,-3.80368 -2.418579,1.26918 -3.973503,4.71375 -0.05728,0.11475 -0.110799,0.23004 -0.166201,0.34511 -1.039227,-0.0401 -1.587373,0.10764 -2.594682,0.6751 -0.94278,0.53111 -2.161018,2.28242 -2.376025,3.41569 -0.231215,1.21845 -0.11416,3.14911 0.233053,3.84082 0.300378,0.59836 0.315895,0.57488 0.560347,-0.85303 0.270089,-1.57792 0.84886,-2.71485 1.330074,-2.61242 1.197908,1.18424 0.484708,3.44383 0.329613,4.89844 -0.762311,0.64244 -2.168794,2.89248 -2.594218,4.18872 -0.418379,1.27474 -0.511741,3.93358 -0.159701,4.55293 0.159974,0.28145 0.219798,0.20846 0.289226,-0.35466 v -4e-4 c 0.306616,-2.48699 2.474102,-3.53413 2.689443,-3.15713 0.397552,0.69603 0.0405,2.95039 0.35092,3.17265 0.01123,0.0497 0.02424,0.0999 0.03575,0.14967 -0.768941,0.79846 -2.497047,3.42352 -2.982796,4.60349 -0.585224,1.42172 -0.992912,3.80306 -0.91782,5.36018 0.03745,0.77724 0.09516,0.88469 0.30687,0.572 0.143387,-0.21182 0.486835,-0.99324 0.763225,-1.7363 1.233519,-3.31633 2.465545,-4.96379 3.381584,-4.52268 0.476712,0.22954 0.909904,1.6214 0.784579,2.52007 -0.04764,0.34156 -0.0192,0.65319 0.06267,0.69261 0.111994,0.0539 0.630579,-0.21072 0.993492,-0.46731 0.659333,1.50491 1.415634,3.04642 2.27203,4.62976 -3.282613,2.35681 -5.010029,6.16383 -5.355569,11.42134 -0.202782,2.9779 3.182796,8.45105 2.764136,5.439 l 0.383469,-1.6563 0.998598,-3.05745 c 1.036616,-3.08199 4.49205,-4.5322 10.366201,-4.16961 1.036615,0.18129 5.010207,1.45017 11.920968,3.80699 6.910765,2.35681 12.612237,3.44456 17.277011,3.62586 10.53891,0.18129 20.38661,-3.26324 29.54337,-10.51497 4.66477,-3.62587 8.63868,-8.33965 12.26684,-13.95973 3.62814,-5.6201 2.98186,-9.97098 2.98186,-13.05296 0,-3.08199 -0.71514,-6.66965 -3.67313,-12.69074 -3.80092,-5.07622 -7.94714,-9.42688 -12.26637,-12.87145 -1.61523,-1.29945 -3.66773,-2.66977 -6.15547,-4.12105 0.1552,-0.47407 -3.50779,-1.66314 -3.50779,-2.35757 0,-2.25013 0.71007,-2.58049 2.38663,-4.2322 1.47857,-1.83344 2.21772,-4.1672 2.21772,-6.91737 0,-1.0834 -0.0858,-2.60014 -1.10909,-4.25001 -3.15322,-3.33795 -2.73042,-4.17456 -2.83377,-0.74994 0.12321,1.41676 0.12312,2.75011 -0.24653,3.91685 -1.10891,3.50022 -2.32447,7.98772 -6.40708,8.16726 l -13.36989,-4.50358 c -6.910774,-2.90069 -11.92091,-11.24002 -12.093679,-18.31045 -0.172769,-6.34527 1.727281,-11.603076 5.700971,-15.410236 2.937075,-2.7194 5.701728,-4.16942 8.466038,-4.35072 5.45834,-0.3996 9.88947,0.18058 13.43303,1.7383 0.3386,0.59596 0.61284,1.23427 0.82079,1.91742 0.24642,0.83339 0.24624,1.66665 0.12302,2.58337 -0.24642,1.25008 -0.36953,1.75038 -0.36953,1.66705 0,0.33335 0.12339,0.4998 0.49302,0.58314 0.91115,0.20543 2.37942,-0.63444 3.48929,-1.71799 1.37614,2.24562 1.63776,3.82423 1.43454,6.570256 -0.0711,0.95958 -0.0706,1.76377 4.6e-4,1.78726 0.22238,0.0736 1.06645,-0.80504 1.61744,-1.68376 0.33645,-0.536586 0.60525,-1.320896 0.74001,-2.159836 0.11635,-0.72444 0.23573,-1.37129 0.26555,-1.43777 0.0536,-0.11944 0.4148,-0.0276 0.93221,0.205 8.44354,12.228126 7.06148,12.836046 8.63688,17.503986 0.29731,-0.87355 0.53006,-1.70039 0.71866,-2.48066 0.20307,-0.096 0.4552,-0.25121 0.75254,-0.47647 0.51339,-0.38896 1.02616,-0.97432 1.2103,-1.37806 0.27349,-0.60295 0.46206,-0.74262 1.33703,-0.99076 0.56025,-0.15888 1.09891,-0.2625 1.19683,-0.23007 0.25679,0.085 1.93089,-1.22369 2.13369,-1.66824 l 0.17131,-0.37577 -0.84447,0.20659 c -0.97874,0.23965 -1.3473,0.0817 -1.04735,-0.449 0.41615,-0.7362 0.23671,-0.83345 -0.84957,-0.46095 -1.4981,0.51376 -1.9747,0.43042 -2.50508,-0.43785 -0.23697,-0.38795 -0.61065,-0.76487 -0.83008,-0.83751 -0.0293,-0.01 -0.0528,-0.0212 -0.0794,-0.0318 -0.0348,-0.95449 -0.0947,-1.88559 -0.18431,-2.78876 2.86878,1.54799 6.20422,1.36412 6.20422,1.36412 0,0 -5.45155,-4.286136 -6.8992,-5.736336 -0.10859,-0.48326 -0.22859,-0.95541 -0.35654,-1.41946 0.41744,0.15367 0.91937,0.43557 1.28829,0.76307 0.44604,0.39599 0.61804,0.46023 1.13926,0.42472 0.56083,-0.0382 0.63637,0.008 0.86815,0.53936 0.2732,0.62577 0.56478,0.67505 1.24743,0.21018 0.38759,-0.26396 0.54065,-0.25032 1.47956,0.13135 0.57597,0.23414 1.48986,0.78496 2.03109,1.22441 1.14204,0.927326 1.48853,1.812546 1.17966,3.014856 -0.22615,0.88028 -0.14121,0.97536 0.61744,0.69062 0.88991,-0.334 1.29876,0.0529 0.92758,0.87731 -0.25415,0.56448 0.21134,0.43701 1.17268,-0.32083 1.3566,-1.06947 1.91792,-1.74189 2.4503,-2.93445 0.50677,-1.135046 0.49667,-2.269426 -0.0269,-3.037536 -0.2687,-0.39421 -0.42782,-0.46371 -1.3231,-0.57678 -1.72458,-0.21784 -2.31956,-0.51002 -3.9879,-1.95683 -1.08602,-0.94182 -2.02746,-1.58431 -2.99579,-2.0448 -1.36452,-0.64889 -1.42443,-0.70456 -1.77436,-1.65152 -0.37225,-1.0072 -1.24059,-2.26888 -2.26739,-3.2939 -0.27044,-0.26995 -0.83374,-0.68221 -1.48466,-1.11216 0.23023,-0.45131 0.45316,-0.887 0.71215,-1.40035 0.86385,-1.63164 1.20937,-3.08211 1.20937,-4.71374 0.17277,-1.63165 -0.68217,-1.95552 -1.03667,-2.71911 -0.44667,2.14743 -2.44717,3.7857 -6.31981,5.01587 -0.81061,-1.26876 -1.7158,-3.09863 -2.22421,-4.59393 -0.63908,-1.88003 -1.3388,-5.92078 -1.27762,-7.37832 0.028,-0.66857 -0.0258,-0.98848 -0.14484,-0.96329 z M 90.993235,148.5 c 3.525304,1.79178 13.793745,7.26629 17.360115,8.9129 7.94737,4.16975 11.92097,9.42724 11.92097,16.13509 0.17276,7.79561 -3.80089,13.7783 -11.74827,18.12934 -3.17887,1.66786 -6.94417,2.56653 -11.292843,2.7 C 93.99888,173.76647 93.566947,163.36263 90.993235,148.5 Z"
         id="path883"
         inkscape:export-xdpi="90"
         inkscape:export-ydpi="90"
         inkscape:connector-curvature="0"
         sodipodi:nodetypes="ccscccccssccccsccccssscccscccscccssccccccssccccccsccscscccccccscscscssccscccsssssscccccccsccsscccscsccccccccccccscccssscccscsccccccsccccccsscsscsssscsssscsccccccccccccccc" />
      <path
         d="m 130.99298,93.597431 c -1.01826,-1.602784 -3.91022,-4.022852 -5.55995,-4.652792 -1.20812,-0.461311 -1.20385,-0.473842 -0.63124,1.843707 l 0.39808,1.612058 3.34628,1.306398 3.34631,1.30626 -0.8993,-1.415612 z"
         inkscape:connector-curvature="0"
         style="fill:#ffffff;stroke-width:0.41243419;fill-opacity:1"
         id="path3792"
         inkscape:export-xdpi="90"
         inkscape:export-ydpi="90"
         transform="matrix(0.89837536,0,0,0.77028014,17.904775,16.328889)" />
    </g>
    <path
       style="fill:none;fill-opacity:1;fill-rule:evenodd;stroke:#ff0000;stroke-width:13;stroke-linecap:square;stroke-linejoin:miter;stroke-dasharray:none;stroke-opacity:1;paint-order:normal"
       d="m 367.53231,733.48214 c -8.09684,-57.21333 -15.27235,-114.52818 -23.29189,-171.75576 25.28266,14.10001 52.41361,25.11947 77.00958,40.41371 7.87319,5.12365 15.3655,11.67172 20.09463,17.56216 9.56578,11.91479 13.64648,24.67766 12.99867,40.65489 -1.04321,25.72968 -13.91413,45.61532 -39.57217,61.13925 -22.3076,13.49681 -46.91515,13.55159 -47.23882,11.98575 z"
       id="path1"
       transform="scale(0.26458333)"
       sodipodi:nodetypes="sssssss" />
    <path
       id="path3"
       style="color:#000000;fill:#ff2424;fill-opacity:1;fill-rule:evenodd;stroke:#ff0000;stroke-width:13;stroke-linecap:round;stroke-linejoin:round;stroke-dasharray:none;stroke-opacity:1"
       d="m 405.17188,325.81836 c -1.84455,0.0353 -3.69732,0.10891 -5.55078,0.22071 -44.31885,2.67365 -69.87035,55.39854 -55.41602,98.65625 6.85857,20.5251 21.70251,38.81454 38.85742,47.58008 1.41485,0.72293 4.28238,1.77397 9.16016,3.51562 4.87788,1.74164 11.54245,4.04686 19.71094,6.81445 7.02817,2.38133 13.5192,4.5491 18.32226,6.125 2.40158,0.788 4.37939,1.42773 5.80079,1.875 0.7107,0.22369 1.28119,0.39812 1.70898,0.52344 0.2139,0.0627 0.39074,0.11294 0.55078,0.1543 0.16003,0.0414 0.0167,0.1016 0.74219,0.12109 1.34451,0.0361 2.62626,-0.29343 4.08984,-0.73828 1.46357,-0.44486 2.97935,-1.03472 4.27735,-1.72656 4.72014,-2.51586 8.62361,-7.45268 11.7207,-14.15625 2.0636,-4.46662 5.63997,-15.05058 6.38281,-19.19531 0.26386,-1.47232 0.98088,-5.74139 1.36328,-10.00391 0.1912,-2.13125 0.3031,-4.24906 0.21094,-6.09375 -0.0461,-0.92234 -0.13799,-1.77459 -0.33984,-2.58789 -0.15902,-0.64073 -0.36418,-1.29552 -0.84961,-1.92578 -0.1899,0.27167 -0.47912,0.49532 -0.84961,0.60742 -0.30355,0.12035 -0.6099,0.23156 -0.91602,0.34375 -0.0892,0.20632 -0.21488,0.42144 -0.38476,0.64062 -0.37875,0.4887 -0.85723,0.88061 -1.33594,1.26563 -0.0605,0.0504 -0.12153,0.10021 -0.18359,0.14844 0.006,0.0195 0.008,0.0154 0.0137,0.0371 0.0895,0.36061 0.17236,0.96822 0.20898,1.70117 0.0732,1.4659 -0.017,3.43963 -0.19726,5.44922 -0.36057,4.01908 -1.06341,8.2315 -1.3086,9.59961 -0.47506,2.65058 -4.34598,14.42276 -6.02929,18.0664 -2.82924,6.12389 -6.3026,10.20068 -9.68946,12.00586 -0.91692,0.48871 -2.23933,1.0143 -3.44531,1.38086 -1.15282,0.3504 -2.23247,0.50512 -2.49805,0.51563 -0.0736,-0.0205 -0.12343,-0.0338 -0.22851,-0.0645 -0.3733,-0.10936 -0.92468,-0.27946 -1.61914,-0.49804 -1.38892,-0.43716 -3.35687,-1.07294 -5.74805,-1.85742 -4.78223,-1.56918 -11.26295,-3.73415 -18.2793,-6.11133 -8.15336,-2.76257 -14.80243,-5.06156 -19.64062,-6.78907 -4.8383,-1.7274 -8.08921,-3.01061 -8.60742,-3.27539 -66.23318,-28.13754 -45.38725,-133.84233 14.72461,-137.46875 3.57764,-0.21584 7.15567,-0.2796 10.67578,-0.19922 10.56022,0.24114 20.59482,1.77967 28.50781,4.4043 3.38739,1.12353 4.96688,1.71318 5.4082,2.00781 0.22066,0.14731 0.23371,0.1589 0.39844,0.42969 0.16474,0.27078 0.41797,0.82305 0.79883,1.65625 2.40483,5.2609 2.76327,8.71568 1.50195,14.8457 -0.61139,2.97138 -1.2309,4.60621 -0.38281,6.73633 0.42405,1.06506 1.57756,1.93779 2.52344,2.20313 0.94588,0.26534 1.76511,0.25305 2.70898,0.24023 3.54774,-0.0482 7.32332,-2.00068 10.9707,-4.94922 0.0472,-0.0382 0.0745,-0.0564 0.1211,-0.0937 0.24943,0.52587 0.48762,1.01262 0.75781,1.62305 0.85832,1.93913 1.74366,4.19526 1.96875,4.98633 0.65992,2.31927 0.72615,3.11318 0.73633,8.28125 l 0.008,4.41601 c -0.002,7.4e-4 -0.004,7.6e-4 -0.006,0.002 0.15097,0.18505 0.28103,0.3872 0.36328,0.6289 0.19881,0.62084 0.2706,1.25631 0.24414,1.90821 0.004,0.30022 0.0145,0.60023 0.0195,0.90039 0.10167,0.0455 0.20449,0.0873 0.3125,0.11718 0.4736,0.15843 0.95219,0.30293 1.41015,0.50391 0.1489,-0.0486 0.31156,-0.12399 0.44922,-0.15234 1.08111,-0.22256 1.85605,-1.17553 1.85352,-2.2793 l -0.0117,-6.05469 c -0.0103,-5.23565 -0.17718,-6.95318 -0.91407,-9.54297 -0.40702,-1.43084 -1.28299,-3.55026 -2.1875,-5.59375 -0.45215,-1.02175 -0.90434,-1.99365 -1.30078,-2.7832 -0.19823,-0.39478 -0.38129,-0.74158 -0.55859,-1.04883 -0.17729,-0.30725 -0.23632,-0.50429 -0.69141,-0.96679 -4.9e-4,-4.9e-4 -0.26181,-0.23615 -0.39843,-0.32422 -0.13662,-0.0881 -0.27296,-0.15623 -0.40039,-0.20703 -0.25486,-0.10161 -0.47222,-0.1398 -0.64844,-0.15625 -0.35244,-0.0329 -0.55685,0.009 -0.70899,0.041 -0.30428,0.0639 -0.42117,0.12669 -0.52539,0.17383 -0.20845,0.0943 -0.30514,0.15748 -0.41406,0.22461 -0.21784,0.13428 -0.42257,0.27497 -0.66406,0.44922 -0.48297,0.3485 -1.08412,0.81224 -1.73438,1.33789 -3.1175,2.5202 -6.50379,3.89416 -8.11328,3.91601 -0.45473,0.006 -0.53455,-0.0196 -0.77734,-0.0391 0.085,-0.0915 0.0193,-1.04581 0.53711,-3.5625 1.38386,-6.72553 0.86799,-11.8189 -1.82617,-17.71289 -0.36583,-0.80032 -0.64001,-1.45187 -1.05665,-2.13672 -0.41664,-0.68486 -1.04087,-1.38202 -1.78515,-1.87891 -1.48854,-0.99367 -3.15353,-1.435 -6.52344,-2.55273 -8.50338,-2.82046 -18.933,-4.40689 -29.87109,-4.64648 -1.82304,-0.04 -3.65936,-0.0411 -5.50391,-0.008 z"
       sodipodi:nodetypes="cscssssssssssssssscccscccssssssccsccccssssssssssscssccccccccsccsssssssssssssccsssssscc"
       transform="scale(0.26458333)" />
  </g>
</svg>
