<?xml version="1.0" encoding="UTF-8" standalone="no"?>
<svg
   width="512"
   height="512"
   viewBox="0 0 135.46667 135.46667"
   version="1.1"
   id="svg1"
   xmlns="http://www.w3.org/2000/svg"
   xmlns:svg="http://www.w3.org/2000/svg"
   xmlns:rdf="http://www.w3.org/1999/02/22-rdf-syntax-ns#"
   xmlns:cc="http://creativecommons.org/ns#"
   xmlns:dc="http://purl.org/dc/elements/1.1/">
  <title
     id="title1">DSCamargo</title>
  <defs
     id="defs1" />
  <g
     id="layer1"
     transform="translate(-30.844935,-86.461948)"
     style="fill:#000102;fill-opacity:1;stroke:none">
    <g
       id="path2"
       style="fill:#000102;fill-opacity:1;stroke:none"
       transform="translate(0.488453,0.922088)">
      <path
         id="path38"
         style="color:#000000;fill:#000102;fill-opacity:1;fill-rule:evenodd;stroke:none;stroke-width:1.05833;stroke-linecap:square;stroke-linejoin:miter;stroke-dasharray:none;stroke-dashoffset:0;stroke-opacity:1"
         d="m 138,154 c 9.40138,-2.9551 17.41779,-10.53023 19.66058,-20.2912 2.21937,-9.77883 2.62199,-20.86904 -2.91272,-29.6757 -6.44681,-10.967335 -19.12017,-18.442605 -32.00171,-16.978226 -12.17348,1.330525 -22.60916,10.735629 -26.304538,22.248036 -3.105903,7.03355 -5.903265,14.21555 -9.215782,21.14973 -2.975429,6.01945 -9.625086,9.77888 -16.329346,9.02002 -6.085189,0.19139 -12.074647,-3.56473 -13.780334,-9.54358 -1.559265,-5.19611 -3.12741,-10.97041 -0.674744,-16.14539 2.631276,-8.20388 9.93798,-13.65963 17.63023,-16.784632 C 90.639332,89.60723 108.98211,87.108976 127,87 105.52517,86.682716 83.748453,85.537072 62.572773,89.88731 c -8.268475,1.58149 -16.667325,6.045308 -20.028095,14.17641 -3.587433,8.9661 -4.858555,19.25773 -1.699036,28.55518 2.47941,8.02303 8.112268,14.96658 15.685608,18.6936 9.78244,5.79438 22.818212,7.84523 32.826721,1.41248 5.660999,-3.50481 10.489926,-8.55767 12.688909,-14.94172 4.07026,-8.75445 6.82509,-18.22978 12.33108,-26.23748 4.05323,-4.96764 11.28301,-4.62468 16.88815,-3.11365 7.43452,3.19152 10.60867,12.3173 9.68283,19.89862 -0.89506,7.41998 -6.08927,13.78392 -12.8539,16.7617 -14.72786,7.27925 -31.096593,8.77254 -47.154806,11.10359 -2.31993,0.30323 -7.009216,0.77519 -2.98191,0.5206 C 97.446708,156.18995 118.82657,158.61955 138,154 Z" />
    </g>
  </g>
  <metadata
     id="metadata1">
    <rdf:RDF>
      <cc:Work
         rdf:about="">
        <dc:title>DSCamargo</dc:title>
        <dc:creator>
          <cc:Agent>
            <dc:title>DSCamargo</dc:title>
          </cc:Agent>
        </dc:creator>
        <dc:rights>
          <cc:Agent>
            <dc:title>DSCamargo</dc:title>
          </cc:Agent>
        </dc:rights>
        <dc:publisher>
          <cc:Agent>
            <dc:title>DSCamargo</dc:title>
          </cc:Agent>
        </dc:publisher>
        <dc:identifier>DSCamargo</dc:identifier>
        <dc:source>DSCamargo</dc:source>
        <dc:relation>DSCamargo</dc:relation>
        <dc:language>pt-BR</dc:language>
        <dc:subject>
          <rdf:Bag>
            <rdf:li>DSCamargo</rdf:li>
          </rdf:Bag>
        </dc:subject>
        <dc:coverage>DSCamargo</dc:coverage>
        <dc:description>DSCamargo</dc:description>
        <dc:contributor>
          <cc:Agent>
            <dc:title>DSCamargo</dc:title>
          </cc:Agent>
        </dc:contributor>
        <cc:license
           rdf:resource="https://dscamargo.com.br" />
      </cc:Work>
    </rdf:RDF>
  </metadata>
  <text
     xml:space="preserve"
     style="font-size:22.5778px;font-family:'Party LET';-inkscape-font-specification:'Party LET';text-align:start;writing-mode:lr-tb;direction:ltr;text-anchor:start;fill:none;fill-rule:evenodd;stroke:#000000;stroke-width:49.9999;stroke-linecap:square;stroke-miterlimit:1"
     x="68.830017"
     y="97.093521"
     id="text1"><tspan
       id="tspan1"
       style="font-style:normal;font-variant:normal;font-weight:normal;font-stretch:normal;font-size:22.5778px;font-family:'Arial Unicode MS';-inkscape-font-specification:'Arial Unicode MS';text-align:center;text-anchor:middle;fill:#000204;fill-opacity:1;stroke:none;stroke-width:50"
       x="68.830017"
       y="97.093521">DSCamargo</tspan><tspan
       style="font-style:normal;font-variant:normal;font-weight:normal;font-stretch:normal;font-size:22.5778px;font-family:'Arial Unicode MS';-inkscape-font-specification:'Arial Unicode MS';text-align:center;text-anchor:middle;fill:#000204;fill-opacity:1;stroke:none;stroke-width:50"
       x="68.830017"
       y="129.93947"
       id="tspan2">Tecnologia</tspan></text>
</svg>
