<?xml version="1.0" encoding="UTF-8"?>
<svg version="1.1" xmlns="http://www.w3.org/2000/svg" 
     width="100%" 
     viewBox="350 260 340 340" 
     preserveAspectRatio="xMidYMid meet">
  
  <!-- Capellaris Inner Star -->
  <path id="capellaris-star" fill="currentColor" d="
M506.216614,531.567139 
	C503.278412,511.437866 500.565094,491.718750 497.624817,472.033539 
	C496.656677,465.552155 495.214752,464.994141 489.457520,468.513275 
	C480.792358,473.809875 472.249329,479.306213 463.651337,484.712830 
	C462.666046,485.332428 461.684235,485.963806 460.659973,486.513672 
	C459.301880,487.242767 457.785706,487.857513 456.497986,486.612457 
	C455.139771,485.299286 455.913727,483.752655 456.720551,482.505157 
	C459.341766,478.452118 462.085938,474.478851 464.761841,470.460907 
	C469.257141,463.711090 474.057007,457.136322 477.484619,449.225525 
	C471.462433,446.330780 465.221619,446.357178 459.274933,445.473389 
	C440.892822,442.741486 422.448914,440.427429 404.035492,437.903564 
	C393.345490,436.438293 382.668182,434.880341 371.984406,433.369415 
	C371.162079,433.253113 370.296997,433.299652 369.515961,433.060699 
	C367.905914,432.568176 366.142151,431.950867 366.178925,429.901642 
	C366.213806,427.955597 367.986908,427.707916 369.446228,427.469147 
	C375.340363,426.504791 381.237488,425.550415 387.149689,424.705750 
	C407.520142,421.795532 427.901184,418.959198 448.270111,416.038513 
	C455.659607,414.978943 463.037842,413.829346 470.400299,412.596008 
	C477.339203,411.433655 478.373322,409.514648 474.527435,403.757324 
	C469.627350,396.421967 464.159027,389.468353 459.148224,382.203522 
	C457.638947,380.015350 454.281006,377.229584 456.468811,374.877136 
	C459.106812,372.040588 461.809418,375.805725 464.099121,377.244385 
	C472.556854,382.558472 480.816315,388.187103 489.186432,393.642029 
	C494.329956,396.994171 496.306732,396.287445 497.456879,390.475983 
	C500.261108,376.306793 501.843536,361.956390 503.675354,347.640137 
	C506.032715,329.216614 508.624329,310.822937 511.138092,292.419586 
	C511.856567,287.159607 512.637939,281.908051 513.425720,276.657898 
	C513.700989,274.823486 513.965820,272.726959 516.502136,272.954071 
	C518.531372,273.135742 518.995605,274.975586 519.236328,276.645203 
	C520.963257,288.623474 522.525696,300.626587 524.362305,312.587708 
	C528.411255,338.957001 530.901245,365.554199 536.092529,391.761658 
	C537.039551,396.542450 538.858398,396.764709 542.419861,394.536621 
	C551.880615,388.617828 561.349731,382.711060 570.883728,376.911621 
	C572.581726,375.878723 574.572449,373.321503 576.546448,375.408386 
	C578.647705,377.629852 576.119568,379.720245 574.839600,381.483917 
	C569.557617,388.761841 564.086304,395.902252 558.796021,403.174255 
	C557.259827,405.285950 555.622620,407.467712 555.642761,410.720551 
	C561.919800,413.407623 568.776306,413.561249 575.393616,414.566833 
	C595.894043,417.682129 616.424988,420.610016 636.975708,423.375305 
	C646.187134,424.614777 655.398743,425.791077 664.533325,427.525269 
	C666.218567,427.845245 668.068420,427.962677 668.097229,430.187378 
	C668.127563,432.529877 666.383667,433.109589 664.400513,433.377716 
	C644.823303,436.024719 625.244446,438.660553 605.677063,441.378967 
	C591.208496,443.389038 576.747864,445.461487 562.304871,447.646301 
	C559.887817,448.011932 557.578918,449.092590 555.279297,449.824005 
	C554.846313,452.360840 556.457642,453.821472 557.525085,455.390503 
	C562.677979,462.964844 567.960144,470.451019 573.164368,477.990692 
	C574.488220,479.908661 575.768677,481.865326 576.926025,483.886169 
	C577.583923,485.034912 578.152649,486.445465 577.029541,487.600433 
	C575.874512,488.788086 574.540222,488.152069 573.382690,487.438751 
	C570.264465,485.517242 567.163635,483.566467 564.083069,481.585175 
	C558.060791,477.711945 552.096008,473.747528 546.027283,469.948883 
	C543.382202,468.293213 540.765564,466.443604 537.023438,465.953949 
	C534.106140,473.069122 533.469910,480.685303 532.394470,488.135193 
	C527.892273,519.324341 523.619446,550.546509 519.186157,581.745728 
	C518.922668,583.599426 518.676880,586.166870 515.949707,585.995544 
	C513.479370,585.840271 513.764526,583.474365 513.511353,581.718140 
	C511.121368,565.142822 508.738220,548.566528 506.216614,531.567139 
z"/>
</svg>
