<svg version="1.1" id="Layer_1" xmlns="http://www.w3.org/2000/svg" xmlns:xlink="http://www.w3.org/1999/xlink" x="0px" y="0px"
	 width="100%" viewBox="0 0 1024 1024" enable-background="new 0 0 1024 1024" xml:space="preserve">
<path fill="#000000" opacity="1.000000" stroke="none" 
	d="
M506.216614,531.567139 
	C503.278412,511.437866 500.565094,491.718750 497.624817,472.033539 
	C496.656677,465.552155 495.214752,464.994141 489.457520,468.513275 
	C480.792358,473.809875 472.249329,479.306213 463.651337,484.712830 
	C462.666046,485.332428 461.684235,485.963806 460.659973,486.513672 
	C459.301880,487.242767 457.785706,487.857513 456.497986,486.612457 
	C455.139771,485.299286 455.913727,483.752655 456.720551,482.505157 
	C459.341766,478.452118 462.085938,474.478851 464.761841,470.460907 
	C469.257141,463.711090 474.057007,457.136322 477.484619,449.225525 
	C471.462433,446.330780 465.221619,446.357178 459.274933,445.473389 
	C440.892822,442.741486 422.448914,440.427429 404.035492,437.903564 
	C393.345490,436.438293 382.668182,434.880341 371.984406,433.369415 
	C371.162079,433.253113 370.296997,433.299652 369.515961,433.060699 
	C367.905914,432.568176 366.142151,431.950867 366.178925,429.901642 
	C366.213806,427.955597 367.986908,427.707916 369.446228,427.469147 
	C375.340363,426.504791 381.237488,425.550415 387.149689,424.705750 
	C407.520142,421.795532 427.901184,418.959198 448.270111,416.038513 
	C455.659607,414.978943 463.037842,413.829346 470.400299,412.596008 
	C477.339203,411.433655 478.373322,409.514648 474.527435,403.757324 
	C469.627350,396.421967 464.159027,389.468353 459.148224,382.203522 
	C457.638947,380.015350 454.281006,377.229584 456.468811,374.877136 
	C459.106812,372.040588 461.809418,375.805725 464.099121,377.244385 
	C472.556854,382.558472 480.816315,388.187103 489.186432,393.642029 
	C494.329956,396.994171 496.306732,396.287445 497.456879,390.475983 
	C500.261108,376.306793 501.843536,361.956390 503.675354,347.640137 
	C506.032715,329.216614 508.624329,310.822937 511.138092,292.419586 
	C511.856567,287.159607 512.637939,281.908051 513.425720,276.657898 
	C513.700989,274.823486 513.965820,272.726959 516.502136,272.954071 
	C518.531372,273.135742 518.995605,274.975586 519.236328,276.645203 
	C520.963257,288.623474 522.525696,300.626587 524.362305,312.587708 
	C528.411255,338.957001 530.901245,365.554199 536.092529,391.761658 
	C537.039551,396.542450 538.858398,396.764709 542.419861,394.536621 
	C551.880615,388.617828 561.349731,382.711060 570.883728,376.911621 
	C572.581726,375.878723 574.572449,373.321503 576.546448,375.408386 
	C578.647705,377.629852 576.119568,379.720245 574.839600,381.483917 
	C569.557617,388.761841 564.086304,395.902252 558.796021,403.174255 
	C557.259827,405.285950 555.622620,407.467712 555.642761,410.720551 
	C561.919800,413.407623 568.776306,413.561249 575.393616,414.566833 
	C595.894043,417.682129 616.424988,420.610016 636.975708,423.375305 
	C646.187134,424.614777 655.398743,425.791077 664.533325,427.525269 
	C666.218567,427.845245 668.068420,427.962677 668.097229,430.187378 
	C668.127563,432.529877 666.383667,433.109589 664.400513,433.377716 
	C644.823303,436.024719 625.244446,438.660553 605.677063,441.378967 
	C591.208496,443.389038 576.747864,445.461487 562.304871,447.646301 
	C559.887817,448.011932 557.578918,449.092590 555.279297,449.824005 
	C554.846313,452.360840 556.457642,453.821472 557.525085,455.390503 
	C562.677979,462.964844 567.960144,470.451019 573.164368,477.990692 
	C574.488220,479.908661 575.768677,481.865326 576.926025,483.886169 
	C577.583923,485.034912 578.152649,486.445465 577.029541,487.600433 
	C575.874512,488.788086 574.540222,488.152069 573.382690,487.438751 
	C570.264465,485.517242 567.163635,483.566467 564.083069,481.585175 
	C558.060791,477.711945 552.096008,473.747528 546.027283,469.948883 
	C543.382202,468.293213 540.765564,466.443604 537.023438,465.953949 
	C534.106140,473.069122 533.469910,480.685303 532.394470,488.135193 
	C527.892273,519.324341 523.619446,550.546509 519.186157,581.745728 
	C518.922668,583.599426 518.676880,586.166870 515.949707,585.995544 
	C513.479370,585.840271 513.764526,583.474365 513.511353,581.718140 
	C511.121368,565.142822 508.738220,548.566528 506.216614,531.567139 
z"/>
<path fill="#000000" opacity="1.000000" stroke="none" 
	d="
M326.824280,424.674866 
	C327.999908,430.182526 327.206970,435.146027 324.927917,439.659546 
	C323.062164,443.354492 324.065765,445.525146 326.803406,448.260712 
	C371.355225,492.777893 415.812866,537.389343 460.253082,582.018066 
	C473.304321,595.124695 486.275787,608.311584 499.186279,621.556763 
	C501.659424,624.093994 503.768707,625.166687 507.421967,623.477112 
	C514.137390,620.371399 521.112122,620.854065 527.651489,624.235596 
	C530.982788,625.958252 533.291199,625.717834 536.013123,622.989563 
	C577.914673,580.989929 619.894592,539.068359 661.887512,497.160004 
	C665.451782,493.602905 668.158569,490.849030 666.162170,484.489441 
	C662.888672,474.061462 670.552979,463.018311 680.781311,460.830505 
	C692.036194,458.423126 702.330444,464.689240 705.013367,475.580566 
	C707.567383,485.948761 701.555786,496.929932 691.550110,499.733398 
	C687.173950,500.959564 682.615295,500.952484 678.280212,499.407593 
	C675.901978,498.560089 674.389099,499.001648 672.600098,500.794891 
	C628.930664,544.568054 585.211792,588.291992 541.434265,631.956970 
	C539.214050,634.171448 539.154053,636.196045 539.759277,639.073242 
	C541.802612,648.788513 539.424866,657.404846 531.552368,663.735596 
	C524.166748,669.674805 515.683777,670.281372 507.069733,666.682617 
	C497.732452,662.781677 493.873657,654.868591 492.903259,645.383484 
	C492.643219,642.841980 493.258667,639.980530 494.255066,637.592651 
	C495.909119,633.628723 494.476013,631.093079 491.739319,628.363647 
	C472.033081,608.709412 452.424500,588.957275 432.788208,569.232910 
	C395.280792,531.557373 357.753662,493.901398 320.309387,456.163208 
	C317.184204,453.013458 314.616180,451.453857 309.599457,452.823303 
	C296.388580,456.429443 283.182190,448.637970 279.647278,436.143280 
	C275.839661,422.684692 282.471527,410.101501 295.767365,405.510437 
	C299.998413,404.049469 304.462280,404.048218 308.585999,405.013611 
	C312.453217,405.918976 314.783661,404.884369 317.367401,402.282043 
	C339.090149,380.402985 360.960724,358.670746 382.690155,336.798279 
	C418.742645,300.508514 454.696533,264.120758 490.779510,227.861359 
	C494.044556,224.580399 495.742889,221.937073 494.176147,216.709045 
	C490.971802,206.016312 496.652344,194.686920 506.384338,189.785172 
	C515.363953,185.262375 526.250916,187.507294 533.070496,195.597916 
	C538.651062,202.218597 539.504883,210.061005 537.619324,218.191635 
	C536.978577,220.954422 537.268494,222.757446 539.307129,224.806183 
	C573.038574,258.705170 606.710571,292.663330 640.328491,326.674835 
	C642.281799,328.651031 644.024109,329.178162 646.855774,328.841858 
	C661.456848,327.107544 671.524109,339.558563 666.116760,352.361969 
	C662.563477,360.775116 653.352600,364.656525 644.475342,361.481354 
	C636.401917,358.593689 631.518555,349.536560 634.349548,341.280243 
	C635.739624,337.226196 634.691406,335.057922 631.919434,332.287842 
	C599.149353,299.540436 566.479126,266.692902 533.879456,233.775742 
	C531.202759,231.072891 529.227234,230.028290 525.431091,232.142593 
	C519.592896,235.394226 513.102661,235.281693 507.189148,232.172791 
	C503.466034,230.215469 501.257568,231.150253 498.584900,233.858978 
	C475.409210,257.347076 452.128143,280.731171 428.882507,304.150269 
	C395.187683,338.096527 361.563843,372.113892 327.716858,405.907715 
	C323.539520,410.078522 321.255920,413.589050 325.102509,419.040680 
	C326.098053,420.451599 326.181732,422.505981 326.824280,424.674866 
z"/>
<path fill="#000000" opacity="1.000000" stroke="none" 
	d="
M701.825378,732.498291 
	C701.848572,729.597839 703.685913,729.685669 705.347229,729.683105 
	C718.845520,729.662292 732.369202,729.152405 745.835571,729.809082 
	C761.991821,730.596863 770.758301,743.331970 766.150696,758.111816 
	C764.868103,762.226074 762.560974,765.614990 758.907288,767.974426 
	C756.262146,769.682617 753.555542,771.295776 750.894348,772.940186 
	C750.614624,774.484680 751.484375,775.558899 752.221375,776.632263 
	C757.124023,783.771851 762.124573,790.845276 766.957336,798.031616 
	C769.943420,802.472168 773.346375,806.139282 779.057617,806.750122 
	C780.741211,806.930237 781.923157,807.869873 781.704773,809.714966 
	C781.495789,811.480591 780.178284,812.020813 778.528442,812.297913 
	C761.798767,815.107910 754.417114,811.534607 746.115234,796.551758 
	C743.210083,791.308533 740.255493,786.092651 737.333374,780.858765 
	C736.163696,778.763794 734.809814,776.797058 732.185669,776.586853 
	C729.461975,776.368591 727.195496,776.850647 727.253418,780.475708 
	C727.354736,786.806519 727.365112,793.141724 727.247070,799.471924 
	C727.176941,803.233215 729.839233,804.596497 732.488525,806.036011 
	C734.174683,806.952271 736.654480,807.200989 736.088928,809.992981 
	C735.464355,813.076050 732.836975,812.320862 730.809875,812.338745 
	C722.644714,812.410828 714.478333,812.404114 706.313049,812.340820 
	C704.598633,812.327515 702.426147,812.864075 701.862000,810.288147 
	C701.344299,807.924622 702.908691,807.136963 704.760925,806.387512 
	C708.169128,805.008606 709.870361,802.568359 709.863342,798.668762 
	C709.830383,780.338562 709.963623,762.008057 710.049500,743.677673 
	C710.065735,740.222290 708.918152,737.542114 705.543274,736.043945 
	C704.061523,735.386169 702.443542,734.718323 701.825378,732.498291 
M727.259644,759.402466 
	C727.282654,761.400574 727.298096,763.398743 727.331116,765.396667 
	C727.354797,766.832153 727.765930,768.263367 729.323303,768.449158 
	C733.450562,768.941223 737.717102,769.512390 741.569702,767.495422 
	C747.106323,764.596619 750.871948,753.748291 748.890381,747.167236 
	C746.888489,740.518860 740.110291,736.070312 732.702148,736.437622 
	C729.130981,736.614685 727.142029,738.043091 727.237427,741.940674 
	C727.371948,747.432983 727.265747,752.931091 727.259644,759.402466 
z"/>
<path fill="#000000" opacity="1.000000" stroke="none" 
	d="
M352.823303,729.596436 
	C355.182556,729.981812 357.141815,730.333740 359.084564,730.760864 
	C370.011108,733.163025 375.101135,738.458618 377.097809,749.467529 
	C378.823730,758.984009 374.217896,769.361023 366.044708,774.485901 
	C359.635284,778.504883 352.373230,779.652466 345.097168,780.303711 
	C340.235352,780.738892 337.587036,782.229492 338.280823,787.593872 
	C338.598633,790.051086 338.541595,792.604919 338.289703,795.077759 
	C337.737152,800.501892 339.247528,804.565186 344.790466,806.485046 
	C346.511230,807.081055 347.601532,808.311890 347.137878,810.323608 
	C346.696747,812.237671 345.118011,812.303162 343.597321,812.335266 
	C334.944885,812.517639 326.291931,812.773560 317.639252,812.769531 
	C315.860748,812.768677 313.338348,813.041504 312.821991,810.291504 
	C312.373810,807.904663 314.367737,807.191406 315.944824,806.352722 
	C320.239349,804.068909 321.808167,800.644714 321.738464,795.726624 
	C321.502472,779.073730 321.514740,762.414001 321.719543,745.760376 
	C321.779816,740.857117 320.353638,737.380310 315.783356,735.326904 
	C314.109497,734.574829 312.221313,733.538269 312.785400,731.298523 
	C313.420013,728.778931 315.788727,729.697144 317.438293,729.683472 
	C329.096863,729.586670 340.756470,729.611633 352.823303,729.596436 
M358.704742,755.382019 
	C358.714600,754.382263 358.753418,753.381897 358.729736,752.382935 
	C358.542877,744.501648 353.101776,738.266357 345.336823,737.546692 
	C342.127869,737.249207 338.314056,736.917297 338.347412,742.139893 
	C338.404877,751.138367 338.395233,760.137817 338.331421,769.136292 
	C338.311401,771.956055 339.493134,772.855408 342.296173,772.775513 
	C351.892426,772.501831 358.181549,766.278748 358.704742,755.382019 
z"/>
<path fill="#000000" opacity="1.000000" stroke="none" 
	d="
M437.353027,766.056152 
	C437.368347,770.875244 437.388794,775.205566 437.395081,779.535889 
	C437.396973,780.851440 437.636200,782.360657 435.879578,782.788452 
	C434.123077,783.216248 433.054688,782.248779 432.359100,780.731384 
	C431.874023,779.673218 431.335815,778.638794 430.869171,777.572815 
	C429.604645,774.684326 427.590454,773.287231 424.262329,773.350647 
	C408.824646,773.645020 411.635071,771.383423 411.363739,785.742126 
	C411.269348,790.736877 411.355072,795.734985 411.353577,800.731567 
	C411.353058,802.459473 411.355896,804.311218 413.691620,804.394287 
	C422.744873,804.716248 431.722046,804.395264 439.525909,798.952881 
	C442.133270,797.134521 444.141571,794.650574 445.281891,791.565979 
	C445.977295,789.684753 447.172913,788.407288 449.427216,788.860229 
	C452.026184,789.382385 451.748199,791.282715 451.408508,793.148315 
	C450.428802,798.529114 449.263092,803.881592 448.479950,809.290039 
	C448.094604,811.951294 446.733032,812.455994 444.430206,812.460388 
	C426.459290,812.494385 408.488464,812.628113 390.517700,812.617432 
	C388.869781,812.616455 386.591766,813.109375 385.903503,810.679993 
	C385.168182,808.084412 387.134949,807.128174 388.967926,806.276794 
	C393.312134,804.259094 394.727722,800.836670 394.686707,796.175354 
	C394.540039,779.521362 394.573059,762.864929 394.662964,746.210144 
	C394.689453,741.301636 393.481293,737.360596 388.534363,735.310364 
	C387.000214,734.674622 385.479919,733.765930 385.867798,731.627014 
	C386.306213,729.209534 388.295258,729.694397 389.829834,729.689514 
	C406.984619,729.634705 424.139587,729.641113 441.294525,729.640015 
	C443.189484,729.639893 445.065491,729.697693 445.266876,732.290588 
	C445.688751,737.722595 447.085480,743.114929 446.034485,748.648743 
	C444.341492,749.653748 442.450165,749.932556 441.701355,748.071960 
	C437.700958,738.132141 428.718048,738.293152 420.367493,737.473633 
	C411.534698,736.606689 411.350708,736.963257 411.349640,745.689087 
	C411.348969,751.351868 411.417542,757.015503 411.336121,762.677063 
	C411.297028,765.394531 412.368744,766.706909 415.157776,766.610291 
	C417.653259,766.523865 420.171265,766.386475 422.648071,766.613220 
	C427.200256,767.029968 429.900360,764.995483 431.320679,760.813965 
	C432.129608,758.432495 433.490997,756.698730 436.524597,757.288879 
	C438.040497,759.943298 437.057465,762.828247 437.353027,766.056152 
z"/>
<path fill="#000000" opacity="1.000000" stroke="none" 
	d="
M647.294556,729.664673 
	C652.802490,728.623413 655.064514,731.216614 656.784973,735.719788 
	C664.091858,754.844421 671.653076,773.872620 679.233398,792.891479 
	C681.561523,798.732849 683.510315,804.999390 690.765137,806.919189 
	C692.346924,807.337769 692.341064,808.885742 692.130554,810.270142 
	C691.918213,811.666321 690.940430,812.255676 689.665710,812.258789 
	C679.169067,812.284119 668.672302,812.284485 658.175659,812.258606 
	C656.573181,812.254639 655.777527,811.316956 655.761414,809.717896 
	C655.747009,808.281982 656.192749,807.389893 657.693115,806.670227 
	C664.679688,803.319519 664.643860,803.244812 662.155945,795.858887 
	C659.138184,786.900085 659.142029,786.811584 649.978882,786.419067 
	C645.322327,786.219604 640.649109,786.386841 635.983704,786.423096 
	C632.582214,786.449524 630.302856,787.926086 629.502380,791.417542 
	C629.131653,793.034851 628.519226,794.596802 628.016479,796.183838 
	C625.590149,803.843323 625.569885,803.898865 633.067322,806.637695 
	C634.763367,807.257324 635.510254,808.096863 635.366638,809.895996 
	C635.206726,811.898438 633.940125,812.312988 632.283569,812.331116 
	C625.622803,812.403809 618.961914,812.524658 612.301270,812.514343 
	C611.053406,812.512390 609.475220,812.549011 608.961670,810.917236 
	C608.555176,809.625793 608.296875,807.984741 609.512634,807.197693 
	C616.904602,802.411865 618.425537,794.104126 621.474121,786.895081 
	C628.930786,769.262085 635.823303,751.390625 642.947449,733.616943 
	C643.691711,731.759888 644.290527,729.739746 647.294556,729.664673 
M652.759460,770.633240 
	C650.914124,766.020813 649.169067,761.364624 647.180603,756.814819 
	C646.205383,754.583435 644.100586,752.651489 642.655151,755.973083 
	C639.596680,763.001587 637.240356,770.335510 634.384277,778.121399 
	C641.817932,778.121399 648.120667,778.121399 654.942688,778.121399 
	C654.188904,775.454285 653.609863,773.405518 652.759460,770.633240 
z"/>
<path fill="#000000" opacity="1.000000" stroke="none" 
	d="
M240.579742,804.860413 
	C242.785568,805.644165 244.686096,806.244629 246.558548,806.922668 
	C248.099426,807.480652 248.298859,808.757874 248.160751,810.187378 
	C248.022324,811.619934 247.104904,812.250488 245.821091,812.265137 
	C238.664398,812.346619 231.503128,812.525513 224.351959,812.340881 
	C221.600891,812.269897 220.429047,808.898621 222.700012,807.352112 
	C229.990189,802.387512 231.449112,794.161438 234.493744,786.953979 
	C241.806076,769.643616 248.653900,752.135681 255.560928,734.656738 
	C256.839905,731.420166 258.251190,729.486450 262.285736,729.472412 
	C266.482941,729.457886 268.047302,731.390076 269.391388,734.865051 
	C276.949554,754.406311 284.663300,773.887512 292.368988,793.371460 
	C294.644196,799.124451 296.802399,805.025635 303.800476,806.819458 
	C305.449799,807.242310 305.528046,808.638000 305.423157,810.039673 
	C305.302307,811.654297 304.406189,812.416077 302.814789,812.410217 
	C292.326477,812.371521 281.838074,812.342529 271.349884,812.281311 
	C269.813965,812.272339 268.855042,811.514526 268.788452,809.861511 
	C268.728973,808.384949 269.276489,807.490234 270.713501,806.778870 
	C277.595367,803.371704 277.753418,802.835205 275.026764,795.560974 
	C271.654694,786.565002 271.654968,786.544739 261.880859,786.394531 
	C257.552795,786.328003 253.222214,786.414429 248.894562,786.334778 
	C245.382034,786.270081 243.300934,787.882202 242.362289,791.249756 
	C241.515106,794.289062 240.403076,797.255066 239.574921,800.298889 
	C239.169815,801.787964 238.143799,803.543945 240.579742,804.860413 
M248.176971,778.005066 
	C254.419769,779.178589 260.644806,778.512817 267.486328,778.468323 
	C265.831329,768.567078 261.525635,760.550171 257.600433,752.235352 
	C253.495743,760.627014 249.957520,768.823181 248.176971,778.005066 
z"/>
<path fill="#000000" opacity="1.000000" stroke="none" 
	d="
M191.419952,737.500122 
	C177.328094,731.330322 162.142639,739.529541 158.682602,757.719421 
	C156.927902,766.944092 156.927048,776.204773 159.540878,785.348633 
	C163.432343,798.961975 173.414642,806.842590 185.925278,805.663208 
	C195.024246,804.805481 200.909042,799.120056 205.230026,791.523926 
	C206.558273,789.188904 207.664001,786.514038 211.596146,788.445557 
	C211.559570,794.248901 210.343887,800.045837 209.302994,805.861877 
	C209.041183,807.324768 208.020828,808.176025 206.809769,808.791504 
	C188.238953,818.230103 159.555710,815.861572 146.050629,797.179382 
	C131.662170,777.275085 135.575424,736.211182 172.269012,728.646912 
	C183.939621,726.241028 194.881424,728.045654 205.759842,732.131287 
	C208.319672,733.092651 209.363342,734.511963 209.412125,737.276672 
	C209.485168,741.416016 210.068787,745.544189 210.342667,749.683228 
	C210.448303,751.280029 210.871307,753.112549 208.538162,753.724854 
	C206.131546,754.356384 205.168472,752.805847 204.460281,751.038818 
	C201.994644,744.886108 197.990494,740.227295 191.419952,737.500122 
z"/>
<path fill="#000000" opacity="1.000000" stroke="none" 
	d="
M841.646118,802.002319 
	C841.334595,797.906067 840.971741,794.264954 840.737610,790.615601 
	C840.615417,788.711853 840.764465,786.862610 843.404114,786.732239 
	C845.396667,786.633789 846.891479,786.915588 847.542358,789.269531 
	C848.477356,792.650818 850.083435,795.778137 852.197815,798.608154 
	C856.696655,804.629517 864.179199,807.453186 871.076843,805.699524 
	C876.870056,804.226624 880.063782,800.430908 881.096802,794.587280 
	C882.032654,789.293091 879.555237,785.518982 875.681335,782.570312 
	C871.131042,779.106812 865.617126,777.474487 860.432434,775.219055 
	C854.275452,772.540588 848.329895,769.404114 844.650940,763.468323 
	C837.374939,751.729492 843.116821,735.200256 856.098694,730.163940 
	C866.754150,726.030029 877.293274,727.247559 887.772766,730.885681 
	C890.003662,731.660156 891.155823,733.116882 891.629517,735.568542 
	C892.558960,740.379272 892.219360,745.194397 892.266907,750.013062 
	C892.281067,751.451111 891.817078,752.686951 890.186035,752.962097 
	C888.464172,753.252563 887.888428,752.001587 887.391907,750.710815 
	C886.616272,748.694580 886.007019,746.595032 885.041626,744.674377 
	C880.762878,736.161804 870.252258,732.855469 862.007568,737.339111 
	C854.166016,741.603577 853.434265,749.690735 860.462402,755.101685 
	C861.901062,756.209229 863.534607,757.099121 865.165405,757.915344 
	C870.526306,760.598206 875.957642,763.141113 881.306580,765.847046 
	C892.621033,771.570801 896.983582,779.724060 895.308472,791.815430 
	C893.899353,801.986816 884.811340,811.161499 874.278320,813.364807 
	C865.186707,815.266663 856.470886,813.923767 847.777283,811.156799 
	C843.355530,809.749573 840.880432,807.337952 841.646118,802.002319 
z"/>
<path fill="#000000" opacity="1.000000" stroke="none" 
	d="
M465.223999,812.291138 
	C462.068268,809.576294 463.434937,807.622070 466.116760,806.507507 
	C471.104156,804.434753 472.024475,800.642883 472.204926,795.703918 
	C472.813293,779.054871 472.494019,762.424072 472.153900,745.781372 
	C472.057343,741.057007 471.233856,737.262451 466.355347,735.329529 
	C464.645447,734.652039 462.966614,733.446350 463.664001,731.173645 
	C464.345001,728.954285 466.415375,729.697266 467.938416,729.686218 
	C477.568085,729.616272 487.198486,729.650757 496.757355,729.650757 
	C498.407104,732.882446 497.001953,734.524536 494.293671,735.595093 
	C490.521759,737.085876 489.246735,739.948059 489.266663,743.884155 
	C489.355865,761.532959 489.377136,779.182983 489.253021,796.831360 
	C489.223724,800.995605 491.101166,803.265259 494.982788,803.490906 
	C505.792023,804.119141 515.665894,802.294800 521.564331,791.741333 
	C522.614807,789.861877 523.923279,789.046997 526.033997,789.706970 
	C528.359192,790.433960 527.799622,792.165710 527.466797,793.798706 
	C526.406372,799.001892 525.298645,804.195618 524.268860,809.404785 
	C523.898987,811.275879 523.030945,812.435608 520.979797,812.433899 
	C502.518951,812.418762 484.058136,812.412415 465.223999,812.291138 
z"/>
<path fill="#000000" opacity="1.000000" stroke="none" 
	d="
M597.808411,806.523865 
	C597.549500,811.248413 595.658691,812.703430 591.056213,812.612854 
	C575.251038,812.301941 559.434448,812.574402 543.622253,812.613647 
	C542.295471,812.616943 540.963623,812.596313 539.642822,812.484558 
	C538.155273,812.358765 536.518555,812.316284 536.009521,810.477722 
	C535.419128,808.345642 536.958191,807.440063 538.490784,806.735535 
	C543.353882,804.499878 544.871216,800.837708 544.768555,795.493835 
	C544.452271,779.018066 544.541870,762.531189 544.716553,746.051270 
	C544.765808,741.399658 543.580200,737.982300 539.115601,735.965454 
	C537.329041,735.158386 535.350037,733.860535 536.084412,731.421997 
	C536.782288,729.104431 539.056335,729.690552 540.794373,729.680786 
	C550.087830,729.628296 559.381836,729.656006 568.553955,729.656006 
	C569.998108,732.579529 569.606201,734.493591 566.804382,735.622803 
	C562.685181,737.282959 561.298523,740.478882 561.317017,744.751648 
	C561.393372,762.398560 561.450012,780.047058 561.263672,797.692322 
	C561.222961,801.550171 562.557251,803.057007 566.292297,803.349792 
	C578.066162,804.272766 588.671021,802.700012 594.915649,790.962219 
	C595.736572,789.419189 596.727173,788.910706 598.540039,789.458740 
	C600.523376,790.058350 600.681824,791.348816 600.402161,792.918152 
	C599.616577,797.326477 598.755737,801.721313 597.808411,806.523865 
z"/>
<path fill="#000000" opacity="1.000000" stroke="none" 
	d="
M800.796387,750.049683 
	C800.787231,747.395325 800.690491,745.227783 800.791138,743.069519 
	C800.940857,739.860718 799.680176,737.661316 796.672058,736.392639 
	C794.516663,735.483521 791.864929,734.425232 792.541626,731.565430 
	C793.302002,728.352234 796.402771,729.744446 798.474548,729.702637 
	C806.292908,729.544739 814.116516,729.632385 821.938049,729.669739 
	C823.385498,729.676636 825.089783,729.407593 825.552856,731.443359 
	C825.951294,733.194885 825.068237,734.458496 823.578369,735.053467 
	C817.860474,737.337158 817.269836,741.955261 817.321472,747.306519 
	C817.478821,763.613831 817.514587,779.926147 817.259338,796.231262 
	C817.181335,801.213867 818.817749,804.594788 823.303406,806.565735 
	C824.907471,807.270508 826.458679,807.937378 826.113037,810.068909 
	C825.694702,812.647522 823.585205,812.318359 821.807312,812.329712 
	C813.486755,812.382874 805.165649,812.416260 796.845215,812.370911 
	C795.110229,812.361450 792.965027,812.745605 792.490173,810.152222 
	C792.100342,808.022949 793.615356,807.213806 795.173401,806.503967 
	C799.507874,804.529236 800.924805,801.197327 800.859070,796.470947 
	C800.645996,781.163513 800.790405,765.851074 800.796387,750.049683 
z"/>
</svg>