<?xml version="1.0" encoding="UTF-8" standalone="no"?>
<!-- Created with Inkscape (http://www.inkscape.org/) -->

<svg
   width="128mm"
   height="128mm"
   viewBox="0 0 128 128"
   version="1.1"
   id="svg1"
   xml:space="preserve"
   inkscape:version="1.3.2 (091e20e, 2023-11-25, custom)"
   sodipodi:docname="dsc_white.svg"
   xmlns:inkscape="http://www.inkscape.org/namespaces/inkscape"
   xmlns:sodipodi="http://sodipodi.sourceforge.net/DTD/sodipodi-0.dtd"
   xmlns:xlink="http://www.w3.org/1999/xlink"
   xmlns="http://www.w3.org/2000/svg"
   xmlns:svg="http://www.w3.org/2000/svg"><sodipodi:namedview
     id="namedview1"
     pagecolor="#ffffff"
     bordercolor="#000000"
     borderopacity="0.25"
     inkscape:showpageshadow="true"
     inkscape:pageopacity="0.0"
     inkscape:pagecheckerboard="true"
     inkscape:deskcolor="#d1d1d1"
     inkscape:document-units="mm"
     inkscape:zoom="1.4627806"
     inkscape:cx="211.92515"
     inkscape:cy="182.8709"
     inkscape:window-width="1920"
     inkscape:window-height="1017"
     inkscape:window-x="-8"
     inkscape:window-y="-8"
     inkscape:window-maximized="1"
     inkscape:current-layer="path2"
     borderlayer="true"
     showborder="true"
     labelstyle="below" /><defs
     id="defs1"><inkscape:path-effect
       effect="interpolate"
       id="path-effect101"
       is_visible="true"
       lpeversion="1"
       trajectory="M 0,0 V 0"
       equidistant_spacing="true"
       steps="8" /><linearGradient
       id="linearGradient95"><stop
         style="stop-color:#1db3db;stop-opacity:1;"
         offset="0"
         id="stop97" /><stop
         style="stop-color:#0a5a10;stop-opacity:1;"
         offset="1"
         id="stop98" /></linearGradient><linearGradient
       id="linearGradient95-1"><stop
         style="stop-color:#412c81;stop-opacity:1;"
         offset="0"
         id="stop95" /><stop
         style="stop-color:#942091;stop-opacity:1;"
         offset="0.50077701"
         id="stop99" /><stop
         style="stop-color:#801229;stop-opacity:1;"
         offset="1"
         id="stop96" /></linearGradient><inkscape:perspective
       sodipodi:type="inkscape:persp3d"
       inkscape:vp_x="26.665025 : -16.075015 : 1"
       inkscape:vp_y="0 : 1200.7363 : 0"
       inkscape:vp_z="141.79374 : -16.075015 : 1"
       inkscape:persp3d-origin="84.229355 : -75.51146 : 1"
       id="perspective2" /><linearGradient
       inkscape:collect="always"
       xlink:href="#linearGradient95-1"
       id="linearGradient101"
       x1="39.905895"
       y1="123.22806"
       x2="158.83444"
       y2="123.22806"
       gradientUnits="userSpaceOnUse" /><filter
       style="color-interpolation-filters:sRGB;"
       inkscape:label="Drop Shadow"
       id="filter104"
       x="-0.068343389"
       y="-0.11381852"
       width="1.1871375"
       height="1.3117944"><feFlood
         result="flood"
         in="SourceGraphic"
         flood-opacity="0.498039"
         flood-color="rgb(0,0,0)"
         id="feFlood103" /><feGaussianBlur
         result="blur"
         in="SourceGraphic"
         stdDeviation="3.000000"
         id="feGaussianBlur103" /><feOffset
         result="offset"
         in="blur"
         dx="6.000000"
         dy="6.000000"
         id="feOffset103" /><feComposite
         result="comp1"
         operator="in"
         in="flood"
         in2="offset"
         id="feComposite103" /><feComposite
         result="comp2"
         operator="over"
         in="SourceGraphic"
         in2="comp1"
         id="feComposite104" /></filter><filter
       style="color-interpolation-filters:sRGB;"
       inkscape:label="Drop Shadow"
       id="filter147"
       x="-0.027983019"
       y="-0.046593847"
       width="1.0727832"
       height="1.1213245"><feFlood
         result="flood"
         in="SourceGraphic"
         flood-opacity="0.498039"
         flood-color="rgb(0,0,0)"
         id="feFlood146" /><feGaussianBlur
         result="blur"
         in="SourceGraphic"
         stdDeviation="1.000000"
         id="feGaussianBlur146" /><feOffset
         result="offset"
         in="blur"
         dx="2.000000"
         dy="2.000000"
         id="feOffset146" /><feComposite
         result="comp1"
         operator="in"
         in="flood"
         in2="offset"
         id="feComposite146" /><feComposite
         result="comp2"
         operator="over"
         in="SourceGraphic"
         in2="comp1"
         id="feComposite147" /></filter></defs><g
     inkscape:label="Camada 1"
     inkscape:groupmode="layer"
     id="layer1"
     transform="translate(-35.959713,-59.025604)"><g
       id="path2"
       style="fill:#000000;fill-opacity:1;stroke:none"
       transform="translate(0.488453,0.922088)"><path
         id="path38"
         style="color:#000000;fill:url(#linearGradient101);fill-opacity:1;fill-rule:evenodd;stroke:#ffffff;stroke-width:1.85208333;stroke-linecap:square;stroke-linejoin:miter;stroke-dasharray:none;stroke-opacity:1;filter:url(#filter147)"
         d="m 158.83444,117.14823 c -2.10557,-15.46537 -15.62428,-29.101003 -31.55132,-29.443048 -12.90345,-0.570016 -25.62111,8.048671 -29.714864,20.306808 -3.134303,7.04913 -5.749073,14.34709 -9.292758,21.20067 -4.281287,7.66605 -12.242289,10.8171 -21.412663,8.3361 -9.026522,-2.28759 -9.532989,-8.8676 -8.674933,-17.56455 0.43307,-8.66597 4.296836,-15.93189 12.331208,-19.9195 16.894336,-8.922045 39.36066,-11.837981 56.76401,-12.359528 -11.03844,0.249609 -62.584376,-2.651935 -76.614762,8.10461 -5.757389,4.173986 -8.999988,11.399518 -9.951565,18.295108 -2.538331,12.21535 0.881869,25.84959 10.270792,34.37098 9.806634,9.25729 25.473495,13.99177 37.952741,7.3408 6.787383,-3.49277 12.665164,-9.40021 14.795244,-16.85453 3.5031,-8.53978 5.59862,-17.90572 11.45196,-25.22688 3.83554,-4.95387 10.63629,-4.49753 16.14581,-3.63967 6.53462,1.87428 9.60087,9.10555 10.69783,15.23979 1.14802,8.29214 -3.42029,16.53257 -10.52579,20.70588 -13.26357,8.15211 -38.431773,10.81988 -53.438079,12.82493 18.439001,-0.67565 39.937159,1.89174 61.155249,-3.41524 11.46089,-5.52649 17.54626,-18.02591 18.95103,-30.19497 0.36842,-2.68786 0.57569,-5.39655 0.66086,-8.10776 z"
         sodipodi:nodetypes="ccccccccccccccccccccc"
         inkscape:path-effect="#path-effect101"
         inkscape:original-d="m 158.83444,117.14823 c -2.10557,-15.46537 -15.62428,-29.101003 -31.55132,-29.443048 -12.90345,-0.570016 -25.62111,8.048671 -29.714864,20.306808 -3.134303,7.04913 -5.749073,14.34709 -9.292758,21.20067 -4.281287,7.66605 -12.242289,10.8171 -21.412663,8.3361 -9.026522,-2.28759 -9.532989,-8.8676 -8.674933,-17.56455 0.43307,-8.66597 4.296836,-15.93189 12.331208,-19.9195 16.894336,-8.922045 39.36066,-11.837981 56.76401,-12.359528 -11.03844,0.249609 -62.584376,-2.651935 -76.614762,8.10461 -5.757389,4.173986 -8.999988,11.399518 -9.951565,18.295108 -2.538331,12.21535 0.881869,25.84959 10.270792,34.37098 9.806634,9.25729 25.473495,13.99177 37.952741,7.3408 6.787383,-3.49277 12.665164,-9.40021 14.795244,-16.85453 3.5031,-8.53978 5.59862,-17.90572 11.45196,-25.22688 3.83554,-4.95387 10.63629,-4.49753 16.14581,-3.63967 6.53462,1.87428 9.60087,9.10555 10.69783,15.23979 1.14802,8.29214 -3.42029,16.53257 -10.52579,20.70588 -13.26357,8.15211 -38.431773,10.81988 -53.438079,12.82493 18.439001,-0.67565 39.937159,1.89174 61.155249,-3.41524 11.46089,-5.52649 17.54626,-18.02591 18.95103,-30.19497 0.36842,-2.68786 0.57569,-5.39655 0.66086,-8.10776 z" /><path
         style="color:#000000;fill:none;fill-opacity:1;fill-rule:evenodd;stroke:none;stroke-linecap:square;-inkscape-stroke:none"
         d="m 74.339844,58.103516 c -19.332539,-10e-7 -35.046876,14.665368 -35.046875,32.783203 0,18.117831 15.714337,32.781251 35.046875,32.781251 19.332536,0 35.048826,-14.66342 35.048826,-32.781251 0,-18.117833 -15.716289,-32.783202 -35.048826,-32.783203 z m 0,1 c 18.827543,10e-7 34.048826,14.243743 34.048826,31.783203 0,17.539461 -15.221284,31.781251 -34.048826,31.781251 -18.827544,0 -34.046875,-14.24179 -34.046875,-31.781251 -10e-7,-17.539462 15.21933,-31.783204 34.046875,-31.783203 z"
         id="path39" /></g><g
       id="path2-9"
       transform="translate(-3.333256,3.004048)"><path
         style="color:#000000;fill:none;fill-rule:evenodd;stroke-linecap:square;-inkscape-stroke:none"
         d="m 74.339844,102.68555 c -19.332536,0 -35.046873,14.66341 -35.046875,32.78125 2e-6,18.11783 15.714339,32.78125 35.046875,32.78125 19.332534,0 35.048826,-14.66342 35.048826,-32.78125 0,-18.11783 -15.716292,-32.78125 -35.048826,-32.78125 z m 0,1 c 18.82754,0 34.048826,14.24179 34.048826,31.78125 0,17.53946 -15.221286,31.78125 -34.048826,31.78125 -18.827542,0 -34.046873,-14.24179 -34.046875,-31.78125 2e-6,-17.53946 15.219333,-31.78125 34.046875,-31.78125 z"
         id="path41" /></g></g></svg>
