<?xml version="1.0" encoding="UTF-8" standalone="no"?>
<!-- Created with Inkscape (http://www.inkscape.org/) -->

<svg
   width="256mm"
   height="256mm"
   viewBox="0 0 256 256"
   version="1.1"
   id="svg1"
   xml:space="preserve"
   inkscape:version="1.4 (e7c3feb1, 2024-10-09)"
   sodipodi:docname="plus.svg"
   xmlns:inkscape="http://www.inkscape.org/namespaces/inkscape"
   xmlns:sodipodi="http://sodipodi.sourceforge.net/DTD/sodipodi-0.dtd"
   xmlns:xlink="http://www.w3.org/1999/xlink"
   xmlns="http://www.w3.org/2000/svg"
   xmlns:svg="http://www.w3.org/2000/svg"><sodipodi:namedview
     id="namedview1"
     pagecolor="#ffffff"
     bordercolor="#111111"
     borderopacity="1"
     inkscape:showpageshadow="0"
     inkscape:pageopacity="0"
     inkscape:pagecheckerboard="1"
     inkscape:deskcolor="#d1d1d1"
     inkscape:document-units="mm"
     inkscape:zoom="0.46112836"
     inkscape:cx="673.34831"
     inkscape:cy="652.74667"
     inkscape:window-width="1496"
     inkscape:window-height="1041"
     inkscape:window-x="215"
     inkscape:window-y="43"
     inkscape:window-maximized="0"
     inkscape:current-layer="layer1" /><defs
     id="defs1"><linearGradient
       id="linearGradient8"
       inkscape:collect="always"><stop
         style="stop-color:#2979ff;stop-opacity:1;"
         offset="0"
         id="stop8" /><stop
         style="stop-color:#2979ff;stop-opacity:0.97647059;"
         offset="0.708561"
         id="stop10" /><stop
         style="stop-color:#00b0ff;stop-opacity:0.96862745;"
         offset="1"
         id="stop9" /></linearGradient><linearGradient
       inkscape:collect="always"
       xlink:href="#linearGradient8"
       id="linearGradient9"
       x1="16.721346"
       y1="136.55907"
       x2="190.5836"
       y2="136.55907"
       gradientUnits="userSpaceOnUse"
       gradientTransform="matrix(1.4659059,0,0,1.4862669,-7.2234623,-24.231738)" /></defs><g
     inkscape:label="Camada 1"
     inkscape:groupmode="layer"
     id="layer1"
     transform="translate(-16.721346,-50.721488)"><path
       style="fill:none;stroke:url(#linearGradient9);stroke-width:19.527;stroke-linecap:round;stroke-linejoin:round;stroke-dasharray:none"
       d="m 234.91998,60.984988 c -0.78482,9.838175 2.47626,26.157341 -6.14645,25.958238 -6.74317,0.194764 -13.49855,-0.430149 -20.2275,-0.0042 m 25.98624,0 h 27.92551 m -27.53766,0.393241 c -0.0517,9.831037 0.0922,19.663723 0,29.493103 m 15.90188,26.34718 c -1.06611,25.35483 0.62801,50.75455 -0.2301,76.13345 -0.98057,20.31523 1.50339,40.77675 -1.19455,60.97896 -2.24935,17.37353 -23.75364,16.39595 -36.79976,15.9901 -37.47213,-1.06224 -74.97917,-0.27653 -112.46626,-0.53412 -19.42384,-0.64828 -38.981564,2.04877 -58.252972,-1.14286 C 30.916975,293.10473 27.145817,281.07101 27.417952,271.36922 26.65882,220.7448 27.131055,170.10347 27.12292,119.4752 27.306926,109.05818 26.663637,93.327275 39.590765,90.619656 57.530971,90.741371 76.669611,90.514582 95.19775,89.643475 121.86202,89.538552 148.5258,89.298553 175.19042,89.298452 M 27.417952,134.52113 c 52.553659,-0.0814 105.120028,0.24486 157.661478,-0.29135 2.15071,7.79988 0.39826,20.39126 1.3583,30.06394 -0.0271,43.35049 0.17475,86.70414 -0.38786,130.04732 v 0.67272 0.34312 m 0.38786,-160.83575 c 5.82549,0.089 11.63591,-0.0951 17.45343,-0.39323 m -97.35141,0.78647 v 160.44251 m 111.7025,-114.04003 v 0.39325 m -151.651019,3.93242 v 0.67272 0.11376"
       id="path8"
       sodipodi:nodetypes="ccccccccccccccccccccccccccccccccc" /></g></svg>
